<?xml version="1.0" standalone="no"?>
<!DOCTYPE svg PUBLIC "-//W3C//DTD SVG 20010904//EN"
 "http://www.w3.org/TR/2001/REC-SVG-20010904/DTD/svg10.dtd">
<svg version="1.0" xmlns="http://www.w3.org/2000/svg"
 width="1064.000000pt" height="1064.000000pt" viewBox="0 0 1064.000000 1064.000000"
 preserveAspectRatio="xMidYMid meet">
<metadata>
Created by potrace 1.14, written by Peter Selinger 2001-2017
</metadata>
<g transform="translate(0.000000,1064.000000) scale(0.100000,-0.100000)"
fill="#000000" stroke="none">
<path d="M4475 10395 c-291 -55 -534 -241 -665 -510 -69 -140 -93 -246 -93
-410 0 -254 87 -468 266 -652 209 -216 504 -315 802 -268 363 57 644 298 756
650 50 156 48 396 -4 557 -145 445 -604 719 -1062 633z"/>
<path d="M3066 8940 c-377 -60 -668 -312 -771 -667 -74 -254 -32 -544 110
-764 123 -190 309 -328 533 -396 79 -24 102 -26 252 -26 151 0 173 2 254 27
326 98 568 346 651 666 37 141 36 328 0 473 -22 82 -94 234 -149 311 -86 120
-235 241 -374 303 -140 62 -367 95 -506 73z"/>
<path d="M5575 8081 c-114 -53 -175 -151 -175 -280 0 -93 25 -155 85 -217 120
-122 310 -125 436 -7 66 62 92 126 91 229 0 100 -27 160 -102 227 -92 83 -222
102 -335 48z"/>
<path d="M6293 8096 c-63 -20 -109 -52 -146 -104 -68 -93 -84 -196 -46 -298
44 -117 148 -193 275 -202 62 -4 79 -1 131 23 68 30 130 89 165 155 19 37 23
60 23 135 0 86 -2 94 -35 149 -77 128 -226 186 -367 142z"/>
<path d="M7065 7871 c-83 -24 -145 -63 -205 -128 -91 -99 -125 -196 -118 -332
8 -145 67 -255 184 -344 208 -158 532 -91 658 137 65 117 81 224 51 341 -66
254 -319 399 -570 326z"/>
<path d="M5064 6647 c-79 -30 -137 -73 -185 -137 -134 -178 -62 -451 145 -551
215 -103 461 19 519 258 22 90 21 107 -3 178 -56 162 -182 260 -350 271 -52 3
-78 -1 -126 -19z"/>
<path d="M6029 5970 c-303 -48 -564 -182 -779 -401 -222 -225 -348 -496 -385
-828 -22 -199 9 -435 82 -621 193 -492 607 -810 1144 -879 113 -15 172 -14
304 4 337 45 603 179 829 416 317 333 443 772 355 1229 -49 248 -186 499 -378
690 -194 193 -398 306 -681 376 -76 18 -403 28 -491 14z"/>
<path d="M2690 3375 c-159 -27 -362 -111 -495 -204 -187 -130 -315 -276 -414
-470 -98 -192 -134 -345 -135 -571 -1 -162 12 -252 56 -390 77 -241 245 -476
451 -631 83 -63 259 -154 363 -188 98 -32 279 -61 386 -61 203 0 392 44 573
134 195 98 370 252 486 431 102 156 136 233 180 400 20 80 23 113 23 300 0
196 -1 217 -26 310 -97 365 -332 656 -666 825 -106 54 -280 109 -377 121 -110
12 -315 10 -405 -6z"/>
<path d="M6310 2454 c-204 -20 -330 -53 -485 -128 -315 -154 -550 -443 -636
-782 -207 -822 470 -1594 1311 -1494 147 18 210 35 348 94 302 130 549 400
651 713 48 145 62 234 63 388 0 206 -41 375 -133 555 -152 297 -426 518 -753
610 -62 17 -308 54 -326 48 -3 -1 -21 -3 -40 -4z"/>
</g>
</svg>
